<?xml version="1.0" encoding="utf-8" ?>
<svg baseProfile="full" viewBox="280 170 460 480" xmlns="http://www.w3.org/2000/svg" xmlns:ev="http://www.w3.org/2001/xml-events" xmlns:xlink="http://www.w3.org/1999/xlink"><defs /><path d="M 567,339 L 568,338 L 574,338 L 575,339 L 581,339 L 582,340 L 584,340 L 585,341 L 587,341 L 588,342 L 589,342 L 590,343 L 591,343 L 592,344 L 593,344 L 594,345 L 595,345 L 597,347 L 598,347 L 609,358 L 609,359 L 611,361 L 611,362 L 612,363 L 612,364 L 613,365 L 613,366 L 614,367 L 614,368 L 615,369 L 615,371 L 616,372 L 616,375 L 617,376 L 617,382 L 618,383 L 618,389 L 617,390 L 617,397 L 616,398 L 616,401 L 615,402 L 615,405 L 614,406 L 614,407 L 613,408 L 613,410 L 612,411 L 612,412 L 611,413 L 611,414 L 610,415 L 610,416 L 609,417 L 609,418 L 607,420 L 607,421 L 605,423 L 605,424 L 602,427 L 602,428 L 594,436 L 593,436 L 590,439 L 589,439 L 587,441 L 586,441 L 584,443 L 583,443 L 582,444 L 581,444 L 580,445 L 579,445 L 578,446 L 577,446 L 576,447 L 575,447 L 574,448 L 572,448 L 571,449 L 569,449 L 568,450 L 564,450 L 563,451 L 558,451 L 557,452 L 526,452 L 524,450 L 524,382 L 525,381 L 525,375 L 526,374 L 526,372 L 527,371 L 527,369 L 528,368 L 528,367 L 529,366 L 529,365 L 530,364 L 530,363 L 531,362 L 531,361 L 533,359 L 533,358 L 536,355 L 536,354 L 541,349 L 542,349 L 545,346 L 546,346 L 547,345 L 548,345 L 550,343 L 552,343 L 553,342 L 554,342 L 555,341 L 557,341 L 558,340 L 560,340 L 561,339 Z" fill="#ff5a5a" stroke="none" /><path d="M 395,189 L 394,190 L 390,190 L 389,191 L 387,191 L 386,192 L 384,192 L 383,193 L 380,193 L 379,194 L 377,194 L 376,195 L 374,195 L 373,196 L 371,196 L 370,197 L 367,197 L 366,198 L 364,198 L 363,199 L 361,199 L 360,200 L 358,200 L 357,201 L 355,201 L 354,202 L 352,202 L 351,203 L 350,203 L 349,204 L 347,204 L 346,205 L 344,205 L 343,206 L 342,206 L 341,207 L 339,207 L 338,208 L 336,208 L 335,209 L 334,209 L 333,210 L 332,210 L 331,211 L 329,211 L 328,212 L 327,212 L 326,213 L 324,213 L 323,214 L 322,214 L 321,215 L 319,215 L 318,216 L 317,216 L 315,218 L 314,218 L 312,220 L 311,220 L 299,232 L 299,233 L 297,235 L 297,236 L 296,237 L 296,238 L 295,239 L 295,240 L 294,241 L 294,242 L 293,243 L 293,244 L 292,245 L 292,247 L 291,248 L 291,251 L 290,252 L 290,255 L 289,256 L 289,265 L 288,266 L 288,417 L 289,418 L 289,432 L 290,433 L 290,440 L 291,441 L 291,446 L 292,447 L 292,452 L 293,453 L 293,456 L 294,457 L 294,461 L 295,462 L 295,465 L 296,466 L 296,469 L 297,470 L 297,472 L 298,473 L 298,475 L 299,476 L 299,478 L 300,479 L 300,481 L 301,482 L 301,484 L 302,485 L 302,486 L 303,487 L 303,489 L 304,490 L 304,491 L 305,492 L 305,494 L 306,495 L 306,496 L 307,497 L 307,498 L 308,499 L 308,500 L 309,501 L 309,503 L 310,504 L 310,505 L 311,506 L 311,507 L 312,508 L 312,509 L 313,510 L 313,511 L 315,513 L 315,514 L 316,515 L 316,516 L 317,517 L 317,518 L 318,519 L 318,520 L 320,522 L 320,523 L 322,525 L 322,526 L 323,527 L 323,528 L 325,530 L 325,531 L 327,533 L 327,534 L 329,536 L 329,537 L 331,539 L 331,540 L 334,543 L 334,544 L 338,548 L 338,549 L 341,552 L 341,553 L 346,558 L 346,559 L 372,585 L 373,585 L 378,590 L 379,590 L 384,595 L 385,595 L 388,598 L 389,598 L 392,601 L 393,601 L 395,603 L 396,603 L 399,606 L 400,606 L 402,608 L 403,608 L 405,610 L 406,610 L 408,612 L 409,612 L 411,614 L 412,614 L 413,615 L 414,615 L 416,617 L 417,617 L 418,618 L 419,618 L 421,620 L 422,620 L 423,621 L 424,621 L 425,622 L 426,622 L 428,624 L 429,624 L 430,625 L 431,625 L 432,626 L 433,626 L 434,627 L 435,627 L 436,628 L 437,628 L 438,629 L 439,629 L 440,630 L 441,630 L 442,631 L 443,631 L 444,632 L 445,632 L 446,633 L 447,633 L 448,634 L 449,634 L 450,635 L 451,635 L 452,636 L 453,636 L 454,637 L 456,637 L 457,638 L 458,638 L 459,639 L 460,639 L 461,640 L 463,640 L 464,641 L 466,641 L 467,642 L 469,642 L 470,643 L 473,643 L 474,644 L 489,644 L 490,643 L 493,643 L 494,642 L 496,642 L 497,641 L 499,641 L 500,640 L 501,640 L 503,638 L 504,638 L 506,636 L 507,636 L 510,633 L 511,633 L 514,630 L 514,629 L 517,626 L 517,625 L 519,623 L 519,622 L 520,621 L 520,619 L 521,618 L 521,617 L 522,616 L 522,614 L 523,613 L 523,610 L 524,609 L 524,496 L 525,495 L 524,494 L 524,489 L 525,488 L 525,487 L 526,486 L 527,486 L 528,485 L 550,485 L 551,486 L 552,485 L 565,485 L 566,484 L 571,484 L 572,483 L 576,483 L 577,482 L 579,482 L 580,481 L 582,481 L 583,480 L 585,480 L 586,479 L 587,479 L 588,478 L 590,478 L 591,477 L 592,477 L 593,476 L 594,476 L 595,475 L 596,475 L 597,474 L 598,474 L 599,473 L 600,473 L 601,472 L 602,472 L 604,470 L 605,470 L 607,468 L 608,468 L 610,466 L 611,466 L 616,461 L 617,461 L 628,450 L 628,449 L 631,446 L 631,445 L 634,442 L 634,441 L 636,439 L 636,438 L 637,437 L 637,436 L 639,434 L 639,433 L 640,432 L 640,431 L 641,430 L 641,429 L 642,428 L 642,427 L 643,426 L 643,424 L 644,423 L 644,422 L 645,421 L 645,420 L 646,419 L 646,417 L 647,416 L 647,414 L 648,413 L 648,410 L 649,409 L 649,406 L 650,405 L 650,400 L 651,399 L 651,373 L 650,372 L 650,368 L 649,367 L 649,364 L 648,363 L 648,361 L 647,360 L 647,358 L 646,357 L 646,356 L 645,355 L 645,353 L 644,352 L 644,351 L 643,350 L 643,349 L 642,348 L 642,347 L 641,346 L 641,345 L 639,343 L 639,342 L 638,341 L 638,340 L 636,338 L 636,337 L 631,332 L 631,331 L 624,324 L 623,324 L 620,321 L 619,321 L 616,318 L 615,318 L 614,317 L 613,317 L 611,315 L 610,315 L 609,314 L 608,314 L 607,313 L 606,313 L 605,312 L 604,312 L 603,311 L 602,311 L 601,310 L 599,310 L 598,309 L 597,309 L 596,308 L 593,308 L 592,307 L 589,307 L 588,306 L 583,306 L 582,305 L 559,305 L 558,306 L 554,306 L 553,307 L 550,307 L 549,308 L 546,308 L 545,309 L 544,309 L 543,310 L 541,310 L 540,311 L 539,311 L 538,312 L 536,312 L 535,313 L 534,313 L 533,314 L 532,314 L 530,316 L 529,316 L 527,318 L 526,318 L 524,320 L 523,320 L 519,324 L 518,324 L 509,333 L 509,334 L 506,337 L 506,338 L 504,340 L 504,341 L 502,343 L 502,344 L 501,345 L 501,346 L 499,348 L 499,350 L 498,351 L 498,352 L 497,353 L 497,354 L 496,355 L 496,357 L 495,358 L 495,359 L 494,360 L 494,363 L 493,364 L 493,367 L 492,368 L 492,373 L 491,374 L 491,600 L 490,601 L 490,603 L 489,604 L 489,605 L 485,609 L 483,609 L 482,610 L 478,610 L 477,609 L 475,609 L 474,608 L 473,608 L 472,607 L 471,607 L 470,606 L 468,606 L 467,605 L 466,605 L 465,604 L 464,604 L 463,603 L 462,603 L 461,602 L 460,602 L 459,601 L 458,601 L 457,600 L 456,600 L 455,599 L 454,599 L 453,598 L 452,598 L 451,597 L 450,597 L 449,596 L 448,596 L 447,595 L 446,595 L 445,594 L 444,594 L 442,592 L 441,592 L 440,591 L 439,591 L 438,590 L 437,590 L 435,588 L 434,588 L 432,586 L 431,586 L 430,585 L 429,585 L 427,583 L 426,583 L 424,581 L 423,581 L 421,579 L 420,579 L 418,577 L 417,577 L 414,574 L 413,574 L 411,572 L 410,572 L 407,569 L 406,569 L 401,564 L 400,564 L 395,559 L 394,559 L 372,537 L 372,536 L 367,531 L 367,530 L 363,526 L 363,525 L 360,522 L 360,521 L 357,518 L 357,517 L 355,515 L 355,514 L 353,512 L 353,511 L 352,510 L 352,509 L 350,507 L 350,506 L 349,505 L 349,504 L 347,502 L 347,501 L 346,500 L 346,499 L 345,498 L 345,497 L 343,495 L 343,494 L 342,493 L 342,492 L 341,491 L 341,490 L 340,489 L 340,487 L 339,486 L 339,485 L 338,484 L 338,483 L 337,482 L 337,481 L 336,480 L 336,478 L 335,477 L 335,476 L 334,475 L 334,473 L 333,472 L 333,470 L 332,469 L 332,468 L 331,467 L 331,465 L 330,464 L 330,461 L 329,460 L 329,458 L 328,457 L 328,454 L 327,453 L 327,449 L 326,448 L 326,444 L 325,443 L 325,439 L 324,438 L 324,432 L 323,431 L 323,419 L 322,418 L 322,265 L 323,264 L 323,259 L 324,258 L 324,257 L 325,256 L 325,255 L 326,254 L 326,253 L 332,247 L 333,247 L 334,246 L 335,246 L 336,245 L 337,245 L 338,244 L 339,244 L 340,243 L 342,243 L 343,242 L 344,242 L 345,241 L 347,241 L 348,240 L 349,240 L 350,239 L 351,239 L 352,238 L 354,238 L 355,237 L 357,237 L 358,236 L 359,236 L 360,235 L 362,235 L 363,234 L 365,234 L 366,233 L 368,233 L 369,232 L 371,232 L 372,231 L 375,231 L 376,230 L 379,230 L 380,231 L 380,450 L 381,451 L 381,454 L 382,455 L 382,457 L 383,458 L 383,459 L 384,460 L 384,461 L 385,462 L 385,463 L 386,464 L 386,465 L 387,466 L 387,467 L 391,471 L 391,472 L 393,474 L 394,474 L 398,478 L 399,478 L 401,480 L 402,480 L 403,481 L 404,481 L 405,482 L 406,482 L 407,483 L 409,483 L 410,484 L 413,484 L 414,485 L 423,485 L 424,486 L 461,486 L 462,485 L 463,486 L 466,486 L 467,485 L 468,485 L 469,484 L 470,485 L 470,452 L 421,452 L 420,451 L 419,451 L 415,447 L 415,446 L 414,445 L 414,438 L 413,437 L 413,417 L 414,416 L 413,415 L 413,401 L 414,400 L 413,399 L 413,346 L 414,345 L 413,344 L 413,332 L 414,331 L 413,330 L 413,230 L 414,229 L 413,228 L 413,226 L 414,225 L 414,207 L 413,206 L 413,201 L 412,200 L 412,198 L 410,196 L 410,195 L 407,192 L 406,192 L 405,191 L 404,191 L 403,190 L 400,190 L 399,189 Z" fill="#ff5a5a" stroke="none" /><path d="M 491,175 L 490,176 L 475,176 L 474,177 L 465,177 L 464,178 L 456,178 L 455,179 L 449,179 L 448,180 L 446,180 L 445,181 L 444,181 L 442,183 L 441,183 L 439,185 L 439,186 L 438,187 L 438,188 L 437,189 L 437,190 L 436,191 L 436,201 L 437,202 L 437,203 L 438,204 L 438,205 L 440,207 L 440,208 L 441,209 L 442,209 L 444,211 L 446,211 L 447,212 L 450,212 L 451,213 L 454,213 L 455,212 L 461,212 L 462,211 L 471,211 L 472,210 L 484,210 L 485,209 L 540,209 L 541,210 L 552,210 L 553,211 L 562,211 L 563,212 L 569,212 L 570,213 L 576,213 L 577,214 L 582,214 L 583,215 L 589,215 L 590,216 L 594,216 L 595,217 L 599,217 L 600,218 L 604,218 L 605,219 L 608,219 L 609,220 L 613,220 L 614,221 L 617,221 L 618,222 L 621,222 L 622,223 L 625,223 L 626,224 L 628,224 L 629,225 L 632,225 L 633,226 L 635,226 L 636,227 L 638,227 L 639,228 L 642,228 L 643,229 L 645,229 L 646,230 L 648,230 L 649,231 L 651,231 L 652,232 L 654,232 L 655,233 L 657,233 L 658,234 L 660,234 L 661,235 L 663,235 L 664,236 L 665,236 L 666,237 L 668,237 L 669,238 L 671,238 L 672,239 L 673,239 L 674,240 L 676,240 L 677,241 L 678,241 L 679,242 L 680,242 L 681,243 L 683,243 L 684,244 L 685,244 L 686,245 L 687,245 L 688,246 L 689,246 L 690,247 L 691,247 L 698,254 L 698,255 L 699,256 L 699,258 L 700,259 L 700,263 L 701,264 L 701,419 L 700,420 L 700,431 L 699,432 L 699,438 L 698,439 L 698,444 L 697,445 L 697,448 L 696,449 L 696,453 L 695,454 L 695,456 L 694,457 L 694,460 L 693,461 L 693,463 L 692,464 L 692,466 L 691,467 L 691,469 L 690,470 L 690,472 L 689,473 L 689,475 L 688,476 L 688,477 L 687,478 L 687,480 L 686,481 L 686,482 L 685,483 L 685,484 L 684,485 L 684,486 L 683,487 L 683,488 L 682,489 L 682,491 L 680,493 L 680,494 L 679,495 L 679,496 L 678,497 L 678,498 L 677,499 L 677,500 L 676,501 L 676,502 L 674,504 L 674,505 L 673,506 L 673,507 L 671,509 L 671,510 L 669,512 L 669,513 L 667,515 L 667,516 L 665,518 L 665,519 L 663,521 L 663,522 L 660,525 L 660,526 L 655,531 L 655,532 L 649,538 L 649,539 L 630,558 L 629,558 L 623,564 L 622,564 L 618,568 L 617,568 L 614,571 L 613,571 L 610,574 L 609,574 L 606,577 L 605,577 L 603,579 L 602,579 L 600,581 L 599,581 L 597,583 L 596,583 L 594,585 L 593,585 L 591,587 L 590,587 L 589,588 L 588,588 L 586,590 L 585,590 L 584,591 L 583,591 L 582,592 L 581,592 L 579,594 L 578,594 L 577,595 L 576,595 L 575,596 L 574,596 L 573,597 L 572,597 L 571,598 L 570,598 L 569,599 L 568,599 L 567,600 L 566,600 L 565,601 L 564,601 L 563,602 L 562,602 L 561,603 L 560,603 L 559,604 L 558,604 L 557,605 L 556,605 L 555,606 L 554,606 L 553,607 L 551,607 L 550,608 L 549,608 L 548,609 L 547,609 L 546,610 L 545,610 L 545,612 L 544,613 L 544,618 L 543,619 L 543,621 L 542,622 L 542,624 L 541,625 L 541,627 L 540,628 L 540,629 L 539,630 L 539,631 L 538,632 L 538,633 L 536,635 L 536,636 L 534,638 L 534,639 L 529,644 L 529,645 L 526,648 L 527,649 L 532,649 L 533,648 L 537,648 L 538,647 L 541,647 L 542,646 L 545,646 L 546,645 L 548,645 L 549,644 L 551,644 L 552,643 L 554,643 L 555,642 L 557,642 L 558,641 L 559,641 L 560,640 L 562,640 L 563,639 L 564,639 L 565,638 L 566,638 L 567,637 L 569,637 L 570,636 L 571,636 L 572,635 L 573,635 L 574,634 L 575,634 L 576,633 L 577,633 L 578,632 L 579,632 L 580,631 L 581,631 L 582,630 L 583,630 L 584,629 L 585,629 L 586,628 L 587,628 L 588,627 L 589,627 L 590,626 L 591,626 L 592,625 L 593,625 L 595,623 L 596,623 L 597,622 L 598,622 L 599,621 L 600,621 L 602,619 L 603,619 L 604,618 L 605,618 L 606,617 L 607,617 L 609,615 L 610,615 L 612,613 L 613,613 L 614,612 L 615,612 L 617,610 L 618,610 L 620,608 L 621,608 L 623,606 L 624,606 L 627,603 L 628,603 L 631,600 L 632,600 L 635,597 L 636,597 L 639,594 L 640,594 L 644,590 L 645,590 L 651,584 L 652,584 L 677,559 L 677,558 L 682,553 L 682,552 L 686,548 L 686,547 L 689,544 L 689,543 L 692,540 L 692,539 L 694,537 L 694,536 L 696,534 L 696,533 L 698,531 L 698,530 L 700,528 L 700,527 L 702,525 L 702,524 L 703,523 L 703,522 L 705,520 L 705,519 L 706,518 L 706,517 L 707,516 L 707,515 L 709,513 L 709,512 L 710,511 L 710,510 L 711,509 L 711,508 L 712,507 L 712,506 L 713,505 L 713,504 L 714,503 L 714,501 L 715,500 L 715,499 L 716,498 L 716,497 L 717,496 L 717,495 L 718,494 L 718,492 L 719,491 L 719,490 L 720,489 L 720,488 L 721,487 L 721,485 L 722,484 L 722,482 L 723,481 L 723,479 L 724,478 L 724,476 L 725,475 L 725,473 L 726,472 L 726,469 L 727,468 L 727,466 L 728,465 L 728,462 L 729,461 L 729,457 L 730,456 L 730,452 L 731,451 L 731,447 L 732,446 L 732,441 L 733,440 L 733,433 L 734,432 L 734,418 L 735,417 L 735,399 L 734,398 L 735,397 L 735,289 L 734,288 L 735,287 L 735,285 L 734,284 L 734,283 L 735,282 L 735,266 L 734,265 L 734,256 L 733,255 L 733,252 L 732,251 L 732,248 L 731,247 L 731,245 L 730,244 L 730,243 L 729,242 L 729,241 L 728,240 L 728,239 L 727,238 L 727,237 L 726,236 L 726,235 L 724,233 L 724,232 L 712,220 L 711,220 L 709,218 L 708,218 L 706,216 L 705,216 L 704,215 L 702,215 L 701,214 L 700,214 L 699,213 L 698,213 L 697,212 L 695,212 L 694,211 L 693,211 L 692,210 L 690,210 L 689,209 L 688,209 L 687,208 L 685,208 L 684,207 L 683,207 L 682,206 L 680,206 L 679,205 L 678,205 L 677,204 L 675,204 L 674,203 L 672,203 L 671,202 L 669,202 L 668,201 L 666,201 L 665,200 L 663,200 L 662,199 L 660,199 L 659,198 L 657,198 L 656,197 L 654,197 L 653,196 L 650,196 L 649,195 L 647,195 L 646,194 L 643,194 L 642,193 L 640,193 L 639,192 L 637,192 L 636,191 L 633,191 L 632,190 L 629,190 L 628,189 L 625,189 L 624,188 L 620,188 L 619,187 L 616,187 L 615,186 L 611,186 L 610,185 L 607,185 L 606,184 L 601,184 L 600,183 L 596,183 L 595,182 L 590,182 L 589,181 L 584,181 L 583,180 L 577,180 L 576,179 L 569,179 L 568,178 L 560,178 L 559,177 L 550,177 L 549,176 L 534,176 L 533,175 Z" fill="#ff5a5a" stroke="none" /></svg>